<?xml version="1.0" encoding="UTF-8"?>
<svg width="512px" height="120px" viewBox="0 0 512 120" version="1.1" xmlns="http://www.w3.org/2000/svg" xmlns:xlink="http://www.w3.org/1999/xlink">
    <!-- Generator: Sketch 48.2 (47327) - http://www.bohemiancoding.com/sketch -->
    <title>logo</title>
    <desc>Created with Sketch.</desc>
    <defs></defs>
    <g id="Page-1" stroke="none" stroke-width="1" fill="none" fill-rule="evenodd">
        <g id="logo">
            <g transform="translate(15.000000, 27.000000)">
                <path d="M92.8,2.6 C94.3,2.6 95.5,3.1 96.5,4.1 C97.5,5.1 98,6.4 98,7.8 C98,9.2 97.5,10.5 96.5,11.5 C95.5,12.5 94.2,13 92.8,13 C91.4,13 90.1,12.5 89.1,11.5 C88.1,10.5 87.6,9.2 87.6,7.8 C87.6,6.3 88.1,5.1 89.1,4.1 C90.1,3.1 91.4,2.6 92.8,2.6 Z" id="Shape" fill="#FFFFFF" fill-rule="nonzero"></path>
                <path d="M418.1,2.6 C419.6,2.6 420.8,3.1 421.8,4.1 C422.8,5.1 423.3,6.4 423.3,7.8 C423.3,9.2 422.8,10.5 421.8,11.5 C420.8,12.5 419.5,13 418.1,13 C416.7,13 415.4,12.5 414.4,11.5 C413.4,10.5 412.9,9.2 412.9,7.8 C412.9,6.3 413.4,5.1 414.4,4.1 C415.4,3.1 416.7,2.6 418.1,2.6 Z" id="Shape" fill="#40B4E5" fill-rule="nonzero"></path>
                <path d="M9.9,3.2 L23.8,40 C24.3,41.2 26,41.2 26.5,40 L40,3.1 C40.5,1.8 42.3,1.8 42.7,3.1 L55.3,40 C55.7,41.3 57.5,41.3 58,40.1 L73.2,3.2 C73.4,2.7 73.9,2.3 74.5,2.3 L81.2,2.3 C82.2,2.3 82.9,3.3 82.5,4.3 L58,64.7 C57.5,65.9 55.7,65.9 55.3,64.6 L42.7,28.1 C42.3,26.8 40.5,26.8 40,28.1 L26.5,64.7 C26,65.9 24.3,66 23.8,64.7 L0.5,4.3 C0.1,3.4 0.8,2.3 1.8,2.3 L8.5,2.3 C9.2,2.3 9.7,2.7 9.9,3.2 Z" id="Shape" fill="#FFFFFF" fill-rule="nonzero"></path>
                <path d="M141.5,12.2 L136.3,15.2 C135.6,15.6 134.8,15.4 134.4,14.7 C133.5,13.3 132.6,12.2 131.8,11.6 C130.3,10.3 128.3,9.6 125.8,9.6 C123.2,9.6 121,10.3 119.3,11.8 C117.6,13.3 116.7,15.1 116.7,17.3 C116.7,20.3 119,22.8 123.5,24.6 L129.7,27.1 C134.9,29.2 138.6,31.7 140.9,34.7 C143.2,37.7 144.3,41.2 144.3,45.2 C144.3,48.2 143.8,50.9 142.7,53.5 C141.6,56.1 140.1,58.3 138,60.2 C134.4,63.6 129.9,65.2 124.7,65.2 C118.3,65.2 113.2,63 109.4,58.5 C108,56.9 107,55.2 106.2,53.5 C105.6,52.1 105.1,50.3 104.8,48.3 C104.7,47.5 105.1,46.8 105.9,46.6 L112.5,45.1 C113.3,44.9 114.1,45.5 114.2,46.3 C114.4,47.7 114.6,48.7 114.9,49.5 C115.2,50.6 115.7,51.5 116.3,52.4 C117.4,53.9 118.9,55 120.8,55.7 C121.9,56.1 123.2,56.4 124.4,56.4 C127.5,56.5 130.1,55.5 132.1,53.5 C134,51.5 135,49.1 135,46.1 C135,43.7 134.3,41.6 132.9,40 C131.5,38.4 129.2,36.9 126.1,35.6 L120.1,33.1 C115.6,31.2 112.4,29 110.4,26.4 C108.4,23.7 107.4,20.8 107.4,17.5 C107.4,12.5 109.2,8.6 112.8,5.6 C114.6,4.1 116.6,3 118.9,2.2 C121.2,1.4 123.6,1 126,1 C130.3,1 134,2.2 137.2,4.6 C138.3,5.5 139.3,6.4 140.1,7.4 C140.7,8.1 141.3,9 142,10.1 C142.4,10.9 142.2,11.8 141.5,12.2 Z" id="Shape" fill="#FFFFFF" fill-rule="nonzero"></path>
                <path d="M151.9,62.7 L151.9,3.7 C151.9,2.9 152.5,2.3 153.3,2.3 L164.5,2.3 C168.2,2.3 171.7,2.5 174.9,3 C180.5,3.9 185.5,6.3 189.8,10.2 C192.9,13 195.3,16.4 196.9,20.4 C198.5,24.4 199.3,28.7 199.3,33.5 C199.3,43 196,50.7 189.3,56.5 C187.2,58.4 184.8,60 182.3,61.2 C179.7,62.4 177.2,63.3 174.6,63.6 C171.8,64 168.3,64.2 164.3,64.2 L153.3,64.2 C152.5,64.2 151.9,63.5 151.9,62.7 Z M160.9,54.1 C160.9,54.9 161.5,55.5 162.3,55.5 L165.1,55.5 C169.3,55.5 172.8,55.1 175.6,54.2 C178.4,53.3 180.9,51.8 183.1,49.8 C185.3,47.7 187,45.3 188.2,42.5 C189.4,39.7 190,36.6 190,33.3 C190,30.1 189.4,27 188.2,24.1 C187,21.2 185.3,18.7 183.2,16.7 C181,14.7 178.5,13.3 175.7,12.4 C172.9,11.5 169.3,11.1 165.1,11.1 L162.3,11.1 C161.5,11.1 160.9,11.7 160.9,12.5 L160.9,54.1 Z" id="Shape" fill="#FFFFFF" fill-rule="nonzero"></path>
                <path d="M238.9,1.1 C243.7,1.1 248.5,2.2 253.2,4.5 C257.9,6.8 261.7,9.8 264.6,13.6 C266.7,16.3 268.3,19.4 269.5,22.9 C270.7,26.4 271.3,29.8 271.3,33.2 C271.3,36.6 270.7,40.1 269.5,43.5 C268.3,46.9 266.7,50.1 264.6,52.8 C261.7,56.5 257.9,59.6 253.2,61.8 C248.5,64.1 243.7,65.2 238.9,65.2 C234,65.2 229.3,64.1 224.6,61.8 C219.9,59.5 216.1,56.5 213.3,52.7 C211.2,50 209.6,46.9 208.4,43.4 C207.2,39.9 206.6,36.5 206.6,33.1 C206.6,29.7 207.2,26.3 208.4,22.8 C209.6,19.3 211.2,16.2 213.3,13.5 C216.2,9.8 220,6.7 224.7,4.5 C229.3,2.3 234.1,1.1 238.9,1.1 Z M238.9,9.8 C235.3,9.8 231.9,10.6 228.7,12.1 C225.5,13.7 222.8,15.8 220.8,18.5 C219.3,20.5 218.1,22.8 217.2,25.5 C216.3,28.2 215.9,30.7 215.9,33.2 C215.9,35.7 216.3,38.2 217.2,40.9 C218.1,43.6 219.3,45.9 220.8,47.9 C222.8,50.6 225.5,52.8 228.7,54.3 C231.9,55.9 235.4,56.6 238.9,56.6 C242.5,56.6 245.9,55.8 249.1,54.3 C252.3,52.7 255,50.6 257,47.9 C258.5,45.9 259.7,43.5 260.6,40.9 C261.5,38.2 261.9,35.7 261.9,33.2 C261.9,30.8 261.5,28.2 260.6,25.5 C259.7,22.8 258.5,20.5 257,18.5 C255,15.8 252.4,13.6 249.1,12.1 C245.9,10.6 242.5,9.8 238.9,9.8 Z" id="Shape"></path>
                <path d="M273.7,62.5 L285.5,2.2 C285.8,0.8 287.7,0.6 288.2,1.9 L306.2,42.9 C306.7,44 308.3,44.1 308.8,42.9 L327.7,1.9 C328.3,0.6 330.2,0.9 330.4,2.3 L341,62.6 C341.2,63.5 340.5,64.3 339.6,64.3 L333,64.3 C332.3,64.3 331.7,63.8 331.6,63.1 L326.6,31.7 C326.4,30.3 324.5,30 323.9,31.3 L308.9,64.3 C308.4,65.4 306.8,65.4 306.3,64.3 L291.6,31.2 C291,29.9 289.1,30.1 288.9,31.5 L283.3,63.1 C283.2,63.8 282.6,64.3 281.9,64.3 L275.2,64.3 C274.2,64.2 273.6,63.4 273.7,62.5 Z" id="Shape" fill="#FFFFFF" fill-rule="nonzero"></path>
                <path d="M389.9,49.1 L365.2,49.1 C364.6,49.1 364.1,49.4 363.9,49.9 L357.8,63.3 C357.6,63.8 357.1,64.1 356.5,64.1 L349.6,64.1 C348.5,64.1 347.8,63 348.3,62.1 L376.7,1.2 C377.2,0.1 378.8,0.1 379.3,1.2 L406.6,62.1 C407,63.1 406.3,64.1 405.3,64.1 L398.3,64.1 C397.7,64.1 397.2,63.8 397,63.2 L391.2,49.9 C391,49.5 390.5,49.1 389.9,49.1 Z M386.2,38.5 L379.2,22.4 C378.7,21.3 377.1,21.2 376.6,22.4 L369.3,38.5 C368.9,39.5 369.6,40.5 370.6,40.5 L385,40.5 C385.9,40.5 386.6,39.4 386.2,38.5 Z" id="Shape" fill="#40B4E5" fill-rule="nonzero"></path>
                <path d="M481.5,13.7 C481.5,14.9 480.1,15.6 479.2,14.8 C478.6,14.3 478,13.9 477.6,13.6 C476.6,12.9 475.4,12.3 474.1,11.8 C471,10.5 467.9,9.8 464.7,9.8 C461.8,9.8 459.1,10.3 456.4,11.4 C453.7,12.5 451.4,14 449.3,16 C447,18.2 445.2,20.8 443.9,23.8 C442.6,26.9 442,30 442,33.2 C442,36.5 442.6,39.6 443.9,42.7 C445.2,45.7 447,48.4 449.3,50.6 C451.4,52.6 453.8,54.1 456.4,55.2 C459,56.3 461.8,56.8 464.7,56.8 C467.9,56.8 471,56.2 474.1,54.9 C475.4,54.3 476.6,53.7 477.6,53 C478.1,52.7 478.6,52.3 479.2,51.8 C480.1,51.1 481.5,51.7 481.5,52.9 L481.5,60.1 C481.5,60.6 481.2,61.1 480.8,61.4 C478.2,62.9 475.8,63.9 473.5,64.5 C471,65.2 468.2,65.5 464.9,65.5 C460.2,65.5 455.7,64.5 451.4,62.5 C447.1,60.5 443.4,57.6 440.4,54 C438,51.1 436.1,47.8 434.8,44.3 C433.5,40.7 432.8,37.1 432.8,33.4 C432.8,29.8 433.5,26.2 434.8,22.6 C436.1,19 438,15.8 440.4,12.9 C443.5,9.3 447.1,6.4 451.4,4.4 C455.7,2.4 460.2,1.4 464.9,1.4 C468.2,1.4 471,1.7 473.5,2.4 C475.8,3 478.2,4 480.8,5.5 C481.3,5.8 481.5,6.2 481.5,6.8 L481.5,13.7 Z" id="Shape" fill="#40B4E5" fill-rule="nonzero"></path>
                <path d="M418.1,18.1 C416.6,18.1 415.5,17.6 414.7,17.1 C414.2,16.8 413.5,17.1 413.5,17.7 L413.5,62.8 C413.5,63.6 414.1,64.2 414.9,64.2 L421,64.2 C421.8,64.2 422.4,63.6 422.4,62.8 L422.4,17.7 C422.4,17.1 421.7,16.8 421.3,17.1 C420.7,17.6 419.6,18.1 418.1,18.1 Z" id="Shape" fill="#40B4E5" fill-rule="nonzero"></path>
                <path d="M92.8,18.1 C91.3,18.1 90.2,17.6 89.4,17.1 C88.9,16.8 88.2,17.1 88.2,17.7 L88.2,62.8 C88.2,63.6 88.8,64.2 89.6,64.2 L95.7,64.2 C96.5,64.2 97.1,63.6 97.1,62.8 L97.1,17.7 C97.1,17.1 96.4,16.8 96,17.1 C95.4,17.6 94.3,18.1 92.8,18.1 Z" id="Shape" fill="#FFFFFF" fill-rule="nonzero"></path>
                <g id="Group" transform="translate(205.000000, 0.000000)" fill-rule="nonzero">
                    <g id="Shape">
                        <path d="M32.9,64 C16,64 2.2,50.2 2.2,33.3 C2.2,16.4 16,2.6 32.9,2.6 C49.8,2.6 63.6,16.4 63.6,33.3 C63.6,50.2 49.8,64 32.9,64 Z" fill="#FFFFFF"></path>
                        <path d="M32.9,4.4 C48.8,4.4 61.8,17.3 61.8,33.3 C61.8,49.2 48.9,62.2 32.9,62.2 C17,62.2 4,49.3 4,33.3 C4,17.3 17,4.4 32.9,4.4 Z M32.9,0.7 C14.9,0.7 0.3,15.3 0.3,33.3 C0.3,51.3 14.9,65.9 32.9,65.9 C50.9,65.9 65.5,51.3 65.5,33.3 C65.5,15.3 50.9,0.7 32.9,0.7 Z" fill="#40B4E5"></path>
                    </g>
                    <circle id="Oval" fill="#40B4E5" cx="32.9" cy="18.4" r="4"></circle>
                    <path d="M32.7,33.2 C24.7,33.2 18.3,26.7 18.3,18.8 C18.3,11 24.5,4.6 32.3,4.4 C16.7,4.8 4.1,17.5 4.1,33.3 C4.1,49.2 17,62.1 32.9,62.2 C40.8,62.1 47.2,55.7 47.2,47.8 C47.1,39.7 40.7,33.2 32.7,33.2 Z M32.9,52 C30.7,52 28.9,50.2 28.9,48 C28.9,45.8 30.7,44 32.9,44 C35.1,44 36.9,45.8 36.9,48 C37,50.2 35.2,52 32.9,52 Z" id="Shape" fill="#40B4E5"></path>
                </g>
            </g>
        </g>
    </g>
</svg>